ffmpeg started on 2025-07-16 at 16:39:50
Report written to "D:\Convert\FFMetrics\reports\ssim_report-6.txt"
Log level: 32
Command line:
ffmpeg -hide_banner -nostdin -i "G:\\\xc0\xed\xe8\xec\xe5\\Shiza\\\xcb\xe5\xe3\xe5\xed\xe4\xe0 \xee \xc3\xf0\xe0\xed\xea\xf0\xe5\xf1\xf2\xe5\\[SHIZA Project] Grancrest Senki TV [12] [nDrOiDze & Lizaveta]_HEVC.mkv" -i "G:\\\xc0\xed\xe8\xec\xe5\\Shiza\\\xcb\xe5\xe3\xe5\xed\xe4\xe0 \xee \xc3\xf0\xe0\xed\xea\xf0\xe5\xf1\xf2\xe5\\[SHIZA Project] Grancrest Senki TV [12] [nDrOiDze & Lizaveta].mkv" -lavfi "[0:v]settb=AVTB,setpts=PTS-STARTPTS,format=pix_fmts=yuv420p10,fps=24000/1001,scale=1280:720:flags=bicubic[main];[1:v]settb=AVTB,setpts=PTS-STARTPTS,format=pix_fmts=yuv420p,fps=24000/1001,scale=1280:720:flags=bicubic[ref];[main][ref]ssim=eof_action=endall:stats_file='D\\:/Convert/FFMetrics/logs/ssim_logfile-6.txt'" -f null -
Input #0, matroska,webm, from 'G:\Аниме\Shiza\Легенда о Гранкресте\[SHIZA Project] Grancrest Senki TV [12] [nDrOiDze & Lizaveta]_HEVC.mkv':
  Metadata:
    ENCODER         : Lavf61.7.100
  Duration: 00:23:40.74, start: -0.021000, bitrate: 685 kb/s
  Stream #0:0: Video: hevc (Main 10), yuv420p10le(tv, bt709, progressive), 1280x720 [SAR 1:1 DAR 16:9], 23.81 fps, 23.81 tbr, 1k tbn (default)
      Metadata:
        title           : [SHIZA Project] Grancrest Senki TV [WEBRip]
        ENCODER         : Lavc61.19.100 libx265
        BPS             : 490246
        DURATION        : 00:23:40.062000000
        NUMBER_OF_FRAMES: 34048
        NUMBER_OF_BYTES : 87022475
        _STATISTICS_WRITING_APP: mkvpropedit v66.0.0 ('Josie') 64-bit
        _STATISTICS_WRITING_DATE_UTC: 2025-07-14 09:47:15
        _STATISTICS_TAGS: BPS DURATION NUMBER_OF_FRAMES NUMBER_OF_BYTES
  Stream #0:1(rus): Audio: aac (LC), 48000 Hz, stereo, fltp (default)
      Metadata:
        title           : nDrOiDze & Lizaveta
        ENCODER         : Lavc61.19.100 aac
        BPS             : 191175
        DURATION        : 00:23:40.714000000
        NUMBER_OF_FRAMES: 66597
        NUMBER_OF_BYTES : 33950765
        _STATISTICS_WRITING_APP: mkvpropedit v66.0.0 ('Josie') 64-bit
        _STATISTICS_WRITING_DATE_UTC: 2025-07-14 09:47:15
        _STATISTICS_TAGS: BPS DURATION NUMBER_OF_FRAMES NUMBER_OF_BYTES
Input #1, matroska,webm, from 'G:\Аниме\Shiza\Легенда о Гранкресте\[SHIZA Project] Grancrest Senki TV [12] [nDrOiDze & Lizaveta].mkv':
  Metadata:
    encoder         : libebml v1.3.4 + libmatroska v1.4.5
    creation_time   : 2018-04-28T14:36:09.000000Z
  Duration: 00:23:40.71, start: 0.000000, bitrate: 1965 kb/s
  Stream #1:0: Video: h264 (High), yuv420p(progressive), 1280x720 [SAR 1:1 DAR 16:9], 23.81 fps, 23.81 tbr, 1k tbn (default)
      Metadata:
        title           : [SHIZA Project] Grancrest Senki TV [WEBRip]
        BPS             : 1772500
        BPS-eng         : 1772500
        DURATION        : 00:23:40.045000000
        DURATION-eng    : 00:23:40.045000000
        NUMBER_OF_FRAMES: 34048
        NUMBER_OF_FRAMES-eng: 34048
        NUMBER_OF_BYTES : 314628870
        NUMBER_OF_BYTES-eng: 314628870
        _STATISTICS_WRITING_APP: mkvmerge v11.0.0 ('Alive') 64bit
        _STATISTICS_WRITING_APP-eng: mkvmerge v11.0.0 ('Alive') 64bit
        _STATISTICS_WRITING_DATE_UTC: 2018-04-28 14:36:09
        _STATISTICS_WRITING_DATE_UTC-eng: 2018-04-28 14:36:09
        _STATISTICS_TAGS: BPS DURATION NUMBER_OF_FRAMES NUMBER_OF_BYTES
        _STATISTICS_TAGS-eng: BPS DURATION NUMBER_OF_FRAMES NUMBER_OF_BYTES
  Stream #1:1(rus): Audio: aac (LC), 48000 Hz, stereo, fltp (default)
      Metadata:
        title           : nDrOiDze & Lizaveta
        BPS             : 189680
        BPS-eng         : 189680
        DURATION        : 00:23:40.714000000
        DURATION-eng    : 00:23:40.714000000
        NUMBER_OF_FRAMES: 66596
        NUMBER_OF_FRAMES-eng: 66596
        NUMBER_OF_BYTES : 33685220
        NUMBER_OF_BYTES-eng: 33685220
        _STATISTICS_WRITING_APP: mkvmerge v11.0.0 ('Alive') 64bit
        _STATISTICS_WRITING_APP-eng: mkvmerge v11.0.0 ('Alive') 64bit
        _STATISTICS_WRITING_DATE_UTC: 2018-04-28 14:36:09
        _STATISTICS_WRITING_DATE_UTC-eng: 2018-04-28 14:36:09
        _STATISTICS_TAGS: BPS DURATION NUMBER_OF_FRAMES NUMBER_OF_BYTES
        _STATISTICS_TAGS-eng: BPS DURATION NUMBER_OF_FRAMES NUMBER_OF_BYTES
  Stream #1:2: Attachment: ttf
      Metadata:
        filename        : OpenSans-Semibold.ttf
        mimetype        : application/x-truetype-font
Stream mapping:
  Stream #0:0 (hevc) -> settb:default
  Stream #1:0 (h264) -> settb:default
  ssim:default -> Stream #0:0 (wrapped_avframe)
  Stream #0:1 -> #0:1 (aac (native) -> pcm_s16le (native))
[swscaler @ 0000016c64290100] No accelerated colorspace conversion found from yuv420p to bgr48le.
[swscaler @ 0000016c6437fe40] No accelerated colorspace conversion found from yuv420p to bgr48le.
[swscaler @ 0000016c64542c40] No accelerated colorspace conversion found from yuv420p to bgr48le.
[swscaler @ 0000016c645e2200] No accelerated colorspace conversion found from yuv420p to bgr48le.
[swscaler @ 0000016c647e9740] No accelerated colorspace conversion found from yuv420p to bgr48le.
[swscaler @ 0000016c648c1b40] No accelerated colorspace conversion found from yuv420p to bgr48le.
[swscaler @ 0000016c64991180] No accelerated colorspace conversion found from yuv420p to bgr48le.
[swscaler @ 0000016c64ad3040] No accelerated colorspace conversion found from yuv420p to bgr48le.
[swscaler @ 0000016c64bc6040] No accelerated colorspace conversion found from yuv420p to bgr48le.
[swscaler @ 0000016c64c34040] No accelerated colorspace conversion found from yuv420p to bgr48le.
[swscaler @ 0000016c64ca3040] No accelerated colorspace conversion found from yuv420p to bgr48le.
[swscaler @ 0000016c64d21040] No accelerated colorspace conversion found from yuv420p to bgr48le.
[swscaler @ 0000016c64d85040] No accelerated colorspace conversion found from yuv420p to bgr48le.
[swscaler @ 0000016c64da7a80] No accelerated colorspace conversion found from yuv420p to bgr48le.
[swscaler @ 0000016c64dc9a40] No accelerated colorspace conversion found from yuv420p to bgr48le.
[swscaler @ 0000016c69431040] No accelerated colorspace conversion found from yuv420p to bgr48le.
Output #0, null, to 'pipe:':
  Metadata:
    encoder         : Lavf61.7.100
  Stream #0:0: Video: wrapped_avframe, yuv420p10le(tv, bt709, progressive), 1280x720 [SAR 1:1 DAR 16:9], q=2-31, 200 kb/s, 23.98 fps, 23.98 tbn
      Metadata:
        encoder         : Lavc61.19.100 wrapped_avframe
  Stream #0:1(rus): Audio: pcm_s16le, 48000 Hz, stereo, s16, 1536 kb/s (default)
      Metadata:
        title           : nDrOiDze & Lizaveta
        _STATISTICS_TAGS: BPS DURATION NUMBER_OF_FRAMES NUMBER_OF_BYTES
        BPS             : 191175
        DURATION        : 00:23:40.714000000
        NUMBER_OF_FRAMES: 66597
        NUMBER_OF_BYTES : 33950765
        _STATISTICS_WRITING_APP: mkvpropedit v66.0.0 ('Josie') 64-bit
        _STATISTICS_WRITING_DATE_UTC: 2025-07-14 09:47:15
        encoder         : Lavc61.19.100 pcm_s16le
frame=   71 fps=0.0 q=-0.0 size=N/A time=00:00:02.96 bitrate=N/A speed= 5.7x    frame=  158 fps=154 q=-0.0 size=N/A time=00:00:06.58 bitrate=N/A speed=6.42x    frame=  253 fps=163 q=-0.0 size=N/A time=00:00:10.55 bitrate=N/A speed=6.81x    frame=  346 fps=167 q=-0.0 size=N/A time=00:00:14.43 bitrate=N/A speed=6.98x    frame=  434 fps=169 q=-0.0 size=N/A time=00:00:18.10 bitrate=N/A speed=7.04x    frame=  513 fps=166 q=-0.0 size=N/A time=00:00:21.39 bitrate=N/A speed=6.92x    frame=  618 fps=171 q=-0.0 size=N/A time=00:00:25.77 bitrate=N/A speed=7.13x    frame=  707 fps=172 q=-0.0 size=N/A time=00:00:29.48 bitrate=N/A speed=7.16x    frame=  795 fps=171 q=-0.0 size=N/A time=00:00:33.15 bitrate=N/A speed=7.14x    frame=  883 fps=171 q=-0.0 size=N/A time=00:00:36.82 bitrate=N/A speed=7.15x    frame=  972 fps=171 q=-0.0 size=N/A time=00:00:40.54 bitrate=N/A speed=7.15x    frame= 1065 fps=172 q=-0.0 size=N/A time=00:00:44.41 bitrate=N/A speed=7.17x    frame= 1147 fps=171 q=-0.0 size=N/A time=00:00:47.83 bitrate=N/A speed=7.14x    frame= 1238 fps=171 q=-0.0 size=N/A time=00:00:51.63 bitrate=N/A speed=7.14x    frame= 1318 fps=171 q=-0.0 size=N/A time=00:00:54.97 bitrate=N/A speed=7.11x    frame= 1412 fps=171 q=-0.0 size=N/A time=00:00:58.89 bitrate=N/A speed=7.14x    frame= 1503 fps=171 q=-0.0 size=N/A time=00:01:02.68 bitrate=N/A speed=7.14x    frame= 1586 fps=171 q=-0.0 size=N/A time=00:01:06.14 bitrate=N/A speed=7.13x    frame= 1680 fps=172 q=-0.0 size=N/A time=00:01:10.07 bitrate=N/A speed=7.16x    frame= 1762 fps=171 q=-0.0 size=N/A time=00:01:13.49 bitrate=N/A speed=7.13x    frame= 1853 fps=171 q=-0.0 size=N/A time=00:01:17.28 bitrate=N/A speed=7.13x    frame= 1946 fps=172 q=-0.0 size=N/A time=00:01:21.16 bitrate=N/A speed=7.16x    frame= 2046 fps=172 q=-0.0 size=N/A time=00:01:25.33 bitrate=N/A speed=7.19x    frame= 2136 fps=173 q=-0.0 size=N/A time=00:01:29.08 bitrate=N/A speed= 7.2x    frame= 2229 fps=173 q=-0.0 size=N/A time=00:01:32.96 bitrate=N/A speed=7.21x    frame= 2320 fps=173 q=-0.0 size=N/A time=00:01:36.76 bitrate=N/A speed=7.22x    frame= 2414 fps=173 q=-0.0 size=N/A time=00:01:40.68 bitrate=N/A speed=7.23x    frame= 2494 fps=173 q=-0.0 size=N/A time=00:01:44.02 bitrate=N/A speed= 7.2x    frame= 2588 fps=173 q=-0.0 size=N/A time=00:01:47.94 bitrate=N/A speed=7.22x    frame= 2680 fps=173 q=-0.0 size=N/A time=00:01:51.77 bitrate=N/A speed=7.23x    frame= 2772 fps=173 q=-0.0 size=N/A time=00:01:55.61 bitrate=N/A speed=7.23x    frame= 2849 fps=173 q=-0.0 size=N/A time=00:01:58.82 bitrate=N/A speed= 7.2x    frame= 2942 fps=173 q=-0.0 size=N/A time=00:02:02.70 bitrate=N/A speed=7.21x    frame= 3041 fps=173 q=-0.0 size=N/A time=00:02:06.83 bitrate=N/A speed=7.23x    frame= 3130 fps=173 q=-0.0 size=N/A time=00:02:10.54 bitrate=N/A speed=7.23x    frame= 3220 fps=173 q=-0.0 size=N/A time=00:02:14.30 bitrate=N/A speed=7.23x    frame= 3311 fps=173 q=-0.0 size=N/A time=00:02:18.09 bitrate=N/A speed=7.24x    frame= 3400 fps=174 q=-0.0 size=N/A time=00:02:21.80 bitrate=N/A speed=7.24x    frame= 3486 fps=173 q=-0.0 size=N/A time=00:02:25.39 bitrate=N/A speed=7.23x    frame= 3575 fps=173 q=-0.0 size=N/A time=00:02:29.10 bitrate=N/A speed=7.23x    frame= 3659 fps=173 q=-0.0 size=N/A time=00:02:32.61 bitrate=N/A speed=7.22x    frame= 3747 fps=173 q=-0.0 size=N/A time=00:02:36.28 bitrate=N/A speed=7.21x    frame= 3835 fps=173 q=-0.0 size=N/A time=00:02:39.95 bitrate=N/A speed=7.21x    frame= 3930 fps=173 q=-0.0 size=N/A time=00:02:43.91 bitrate=N/A speed=7.22x    frame= 4024 fps=173 q=-0.0 size=N/A time=00:02:47.83 bitrate=N/A speed=7.23x    frame= 4112 fps=173 q=-0.0 size=N/A time=00:02:51.50 bitrate=N/A speed=7.23x    frame= 4205 fps=173 q=-0.0 size=N/A time=00:02:55.38 bitrate=N/A speed=7.24x    frame= 4294 fps=173 q=-0.0 size=N/A time=00:02:59.09 bitrate=N/A speed=7.24x    frame= 4386 fps=174 q=-0.0 size=N/A time=00:03:02.93 bitrate=N/A speed=7.24x    frame= 4478 fps=174 q=-0.0 size=N/A time=00:03:06.76 bitrate=N/A speed=7.24x    frame= 4565 fps=174 q=-0.0 size=N/A time=00:03:10.39 bitrate=N/A speed=7.24x    frame= 4661 fps=174 q=-0.0 size=N/A time=00:03:14.40 bitrate=N/A speed=7.25x    frame= 4750 fps=174 q=-0.0 size=N/A time=00:03:18.11 bitrate=N/A speed=7.25x    frame= 4841 fps=174 q=-0.0 size=N/A time=00:03:21.91 bitrate=N/A speed=7.25x    frame= 4932 fps=174 q=-0.0 size=N/A time=00:03:25.70 bitrate=N/A speed=7.25x    frame= 5021 fps=174 q=-0.0 size=N/A time=00:03:29.41 bitrate=N/A speed=7.25x    frame= 5112 fps=174 q=-0.0 size=N/A time=00:03:33.21 bitrate=N/A speed=7.25x    frame= 5197 fps=174 q=-0.0 size=N/A time=00:03:36.75 bitrate=N/A speed=7.25x    frame= 5287 fps=174 q=-0.0 size=N/A time=00:03:40.51 bitrate=N/A speed=7.25x    frame= 5372 fps=174 q=-0.0 size=N/A time=00:03:44.05 bitrate=N/A speed=7.24x    frame= 5471 fps=174 q=-0.0 size=N/A time=00:03:48.18 bitrate=N/A speed=7.25x    frame= 5552 fps=174 q=-0.0 size=N/A time=00:03:51.56 bitrate=N/A speed=7.24x    frame= 5647 fps=174 q=-0.0 size=N/A time=00:03:55.52 bitrate=N/A speed=7.25x    frame= 5745 fps=174 q=-0.0 size=N/A time=00:03:59.61 bitrate=N/A speed=7.26x    frame= 5826 fps=174 q=-0.0 size=N/A time=00:04:02.99 bitrate=N/A speed=7.25x    frame= 5913 fps=174 q=-0.0 size=N/A time=00:04:06.62 bitrate=N/A speed=7.25x    frame= 6009 fps=174 q=-0.0 size=N/A time=00:04:10.62 bitrate=N/A speed=7.25x    frame= 6101 fps=174 q=-0.0 size=N/A time=00:04:14.46 bitrate=N/A speed=7.26x    frame= 6185 fps=174 q=-0.0 size=N/A time=00:04:17.96 bitrate=N/A speed=7.25x    frame= 6288 fps=174 q=-0.0 size=N/A time=00:04:22.26 bitrate=N/A speed=7.26x    frame= 6378 fps=174 q=-0.0 size=N/A time=00:04:26.01 bitrate=N/A speed=7.26x    frame= 6458 fps=174 q=-0.0 size=N/A time=00:04:29.35 bitrate=N/A speed=7.25x    frame= 6555 fps=174 q=-0.0 size=N/A time=00:04:33.39 bitrate=N/A speed=7.26x    frame= 6646 fps=174 q=-0.0 size=N/A time=00:04:37.19 bitrate=N/A speed=7.26x    frame= 6734 fps=174 q=-0.0 size=N/A time=00:04:40.86 bitrate=N/A speed=7.26x    frame= 6826 fps=174 q=-0.0 size=N/A time=00:04:44.70 bitrate=N/A speed=7.26x    frame= 6910 fps=174 q=-0.0 size=N/A time=00:04:48.20 bitrate=N/A speed=7.26x    frame= 6994 fps=174 q=-0.0 size=N/A time=00:04:51.70 bitrate=N/A speed=7.25x    frame= 7084 fps=174 q=-0.0 size=N/A time=00:04:55.46 bitrate=N/A speed=7.25x    frame= 7181 fps=174 q=-0.0 size=N/A time=00:04:59.50 bitrate=N/A speed=7.26x    frame= 7274 fps=174 q=-0.0 size=N/A time=00:05:03.38 bitrate=N/A speed=7.26x    frame= 7353 fps=174 q=-0.0 size=N/A time=00:05:06.68 bitrate=N/A speed=7.25x    frame= 7451 fps=174 q=-0.0 size=N/A time=00:05:10.76 bitrate=N/A speed=7.26x    frame= 7540 fps=174 q=-0.0 size=N/A time=00:05:14.48 bitrate=N/A speed=7.26x    frame= 7630 fps=174 q=-0.0 size=N/A time=00:05:18.23 bitrate=N/A speed=7.26x    frame= 7722 fps=174 q=-0.0 size=N/A time=00:05:22.07 bitrate=N/A speed=7.26x    frame= 7808 fps=174 q=-0.0 size=N/A time=00:05:25.65 bitrate=N/A speed=7.26x    frame= 7890 fps=174 q=-0.0 size=N/A time=00:05:29.07 bitrate=N/A speed=7.25x    frame= 7985 fps=174 q=-0.0 size=N/A time=00:05:33.04 bitrate=N/A speed=7.25x    frame= 8075 fps=174 q=-0.0 size=N/A time=00:05:36.79 bitrate=N/A speed=7.25x    frame= 8153 fps=174 q=-0.0 size=N/A time=00:05:40.04 bitrate=N/A speed=7.24x    frame= 8241 fps=174 q=-0.0 size=N/A time=00:05:43.71 bitrate=N/A speed=7.24x    frame= 8341 fps=174 q=-0.0 size=N/A time=00:05:47.88 bitrate=N/A speed=7.25x    frame= 8430 fps=174 q=-0.0 size=N/A time=00:05:51.60 bitrate=N/A speed=7.25x    frame= 8520 fps=174 q=-0.0 size=N/A time=00:05:55.35 bitrate=N/A speed=7.25x    frame= 8609 fps=174 q=-0.0 size=N/A time=00:05:59.06 bitrate=N/A speed=7.25x    frame= 8698 fps=174 q=-0.0 size=N/A time=00:06:02.77 bitrate=N/A speed=7.25x    frame= 8789 fps=174 q=-0.0 size=N/A time=00:06:06.57 bitrate=N/A speed=7.25x    frame= 8883 fps=174 q=-0.0 size=N/A time=00:06:10.49 bitrate=N/A speed=7.25x    frame= 8971 fps=174 q=-0.0 size=N/A time=00:06:14.16 bitrate=N/A speed=7.25x    frame= 9065 fps=174 q=-0.0 size=N/A time=00:06:18.08 bitrate=N/A speed=7.26x    frame= 9143 fps=174 q=-0.0 size=N/A time=00:06:21.33 bitrate=N/A speed=7.25x    frame= 9240 fps=174 q=-0.0 size=N/A time=00:06:25.38 bitrate=N/A speed=7.25x    frame= 9332 fps=174 q=-0.0 size=N/A time=00:06:29.22 bitrate=N/A speed=7.26x    frame= 9421 fps=174 q=-0.0 size=N/A time=00:06:32.93 bitrate=N/A speed=7.26x    frame= 9512 fps=174 q=-0.0 size=N/A time=00:06:36.72 bitrate=N/A speed=7.26x    frame= 9596 fps=174 q=-0.0 size=N/A time=00:06:40.23 bitrate=N/A speed=7.25x    frame= 9693 fps=174 q=-0.0 size=N/A time=00:06:44.27 bitrate=N/A speed=7.26x    frame= 9783 fps=174 q=-0.0 size=N/A time=00:06:48.03 bitrate=N/A speed=7.26x    frame= 9872 fps=174 q=-0.0 size=N/A time=00:06:51.74 bitrate=N/A speed=7.26x    frame= 9958 fps=174 q=-0.0 size=N/A time=00:06:55.33 bitrate=N/A speed=7.25x    frame=10039 fps=174 q=-0.0 size=N/A time=00:06:58.70 bitrate=N/A speed=7.25x    frame=10135 fps=174 q=-0.0 size=N/A time=00:07:02.71 bitrate=N/A speed=7.25x    frame=10231 fps=174 q=-0.0 size=N/A time=00:07:06.71 bitrate=N/A speed=7.26x    frame=10323 fps=174 q=-0.0 size=N/A time=00:07:10.55 bitrate=N/A speed=7.26x    frame=10414 fps=174 q=-0.0 size=N/A time=00:07:14.35 bitrate=N/A speed=7.26x    frame=10494 fps=174 q=-0.0 size=N/A time=00:07:17.68 bitrate=N/A speed=7.25x    frame=10597 fps=174 q=-0.0 size=N/A time=00:07:21.98 bitrate=N/A speed=7.26x    frame=10688 fps=174 q=-0.0 size=N/A time=00:07:25.77 bitrate=N/A speed=7.26x    frame=10775 fps=174 q=-0.0 size=N/A time=00:07:29.40 bitrate=N/A speed=7.26x    frame=10868 fps=174 q=-0.0 size=N/A time=00:07:33.28 bitrate=N/A speed=7.26x    frame=10963 fps=174 q=-0.0 size=N/A time=00:07:37.24 bitrate=N/A speed=7.27x    frame=11055 fps=174 q=-0.0 size=N/A time=00:07:41.08 bitrate=N/A speed=7.27x    frame=11146 fps=174 q=-0.0 size=N/A time=00:07:44.88 bitrate=N/A speed=7.27x    frame=11237 fps=174 q=-0.0 size=N/A time=00:07:48.67 bitrate=N/A speed=7.27x    frame=11322 fps=174 q=-0.0 size=N/A time=00:07:52.22 bitrate=N/A speed=7.27x    frame=11420 fps=174 q=-0.0 size=N/A time=00:07:56.30 bitrate=N/A speed=7.27x    frame=11508 fps=174 q=-0.0 size=N/A time=00:07:59.97 bitrate=N/A speed=7.27x    frame=11600 fps=174 q=-0.0 size=N/A time=00:08:03.81 bitrate=N/A speed=7.27x    frame=11688 fps=174 q=-0.0 size=N/A time=00:08:07.48 bitrate=N/A speed=7.27x    frame=11772 fps=174 q=-0.0 size=N/A time=00:08:10.99 bitrate=N/A speed=7.27x    frame=11868 fps=174 q=-0.0 size=N/A time=00:08:14.99 bitrate=N/A speed=7.27x    frame=11958 fps=174 q=-0.0 size=N/A time=00:08:18.74 bitrate=N/A speed=7.27x    frame=12047 fps=174 q=-0.0 size=N/A time=00:08:22.46 bitrate=N/A speed=7.27x    frame=12134 fps=174 q=-0.0 size=N/A time=00:08:26.08 bitrate=N/A speed=7.27x    frame=12223 fps=174 q=-0.0 size=N/A time=00:08:29.80 bitrate=N/A speed=7.27x    frame=12307 fps=174 q=-0.0 size=N/A time=00:08:33.30 bitrate=N/A speed=7.26x    frame=12405 fps=174 q=-0.0 size=N/A time=00:08:37.39 bitrate=N/A speed=7.27x    frame=12485 fps=174 q=-0.0 size=N/A time=00:08:40.72 bitrate=N/A speed=7.26x    frame=12583 fps=174 q=-0.0 size=N/A time=00:08:44.81 bitrate=N/A speed=7.27x    frame=12668 fps=174 q=-0.0 size=N/A time=00:08:48.36 bitrate=N/A speed=7.27x    frame=12758 fps=174 q=-0.0 size=N/A time=00:08:52.11 bitrate=N/A speed=7.27x    frame=12846 fps=174 q=-0.0 size=N/A time=00:08:55.78 bitrate=N/A speed=7.26x    frame=12932 fps=174 q=-0.0 size=N/A time=00:08:59.37 bitrate=N/A speed=7.26x    frame=13023 fps=174 q=-0.0 size=N/A time=00:09:03.16 bitrate=N/A speed=7.26x    frame=13112 fps=174 q=-0.0 size=N/A time=00:09:06.87 bitrate=N/A speed=7.26x    frame=13204 fps=174 q=-0.0 size=N/A time=00:09:10.71 bitrate=N/A speed=7.26x    frame=13293 fps=174 q=-0.0 size=N/A time=00:09:14.42 bitrate=N/A speed=7.26x    frame=13381 fps=174 q=-0.0 size=N/A time=00:09:18.09 bitrate=N/A speed=7.26x    frame=13471 fps=174 q=-0.0 size=N/A time=00:09:21.85 bitrate=N/A speed=7.26x    frame=13563 fps=174 q=-0.0 size=N/A time=00:09:25.69 bitrate=N/A speed=7.26x    frame=13654 fps=174 q=-0.0 size=N/A time=00:09:29.48 bitrate=N/A speed=7.26x    frame=13738 fps=174 q=-0.0 size=N/A time=00:09:32.98 bitrate=N/A speed=7.26x    frame=13827 fps=174 q=-0.0 size=N/A time=00:09:36.70 bitrate=N/A speed=7.26x    frame=13919 fps=174 q=-0.0 size=N/A time=00:09:40.53 bitrate=N/A speed=7.26x    frame=14011 fps=174 q=-0.0 size=N/A time=00:09:44.37 bitrate=N/A speed=7.26x    frame=14097 fps=174 q=-0.0 size=N/A time=00:09:47.96 bitrate=N/A speed=7.26x    frame=14183 fps=174 q=-0.0 size=N/A time=00:09:51.54 bitrate=N/A speed=7.26x    frame=14268 fps=174 q=-0.0 size=N/A time=00:09:55.09 bitrate=N/A speed=7.26x    frame=14362 fps=174 q=-0.0 size=N/A time=00:09:59.01 bitrate=N/A speed=7.26x    frame=14453 fps=174 q=-0.0 size=N/A time=00:10:02.81 bitrate=N/A speed=7.26x    frame=14539 fps=174 q=-0.0 size=N/A time=00:10:06.39 bitrate=N/A speed=7.26x    frame=14625 fps=174 q=-0.0 size=N/A time=00:10:09.98 bitrate=N/A speed=7.26x    frame=14711 fps=174 q=-0.0 size=N/A time=00:10:13.57 bitrate=N/A speed=7.25x    frame=14802 fps=174 q=-0.0 size=N/A time=00:10:17.36 bitrate=N/A speed=7.25x    frame=14883 fps=174 q=-0.0 size=N/A time=00:10:20.74 bitrate=N/A speed=7.25x    frame=14983 fps=174 q=-0.0 size=N/A time=00:10:24.91 bitrate=N/A speed=7.26x    frame=15071 fps=174 q=-0.0 size=N/A time=00:10:28.58 bitrate=N/A speed=7.25x    frame=15158 fps=174 q=-0.0 size=N/A time=00:10:32.21 bitrate=N/A speed=7.25x    frame=15246 fps=174 q=-0.0 size=N/A time=00:10:35.88 bitrate=N/A speed=7.25x    frame=15344 fps=174 q=-0.0 size=N/A time=00:10:39.97 bitrate=N/A speed=7.26x    frame=15427 fps=174 q=-0.0 size=N/A time=00:10:43.43 bitrate=N/A speed=7.25x    frame=15524 fps=174 q=-0.0 size=N/A time=00:10:47.48 bitrate=N/A speed=7.26x    frame=15617 fps=174 q=-0.0 size=N/A time=00:10:51.35 bitrate=N/A speed=7.26x    frame=15698 fps=174 q=-0.0 size=N/A time=00:10:54.73 bitrate=N/A speed=7.26x    frame=15798 fps=174 q=-0.0 size=N/A time=00:10:58.90 bitrate=N/A speed=7.26x    frame=15889 fps=174 q=-0.0 size=N/A time=00:11:02.70 bitrate=N/A speed=7.26x    frame=15983 fps=174 q=-0.0 size=N/A time=00:11:06.62 bitrate=N/A speed=7.26x    frame=16070 fps=174 q=-0.0 size=N/A time=00:11:10.25 bitrate=N/A speed=7.26x    frame=16159 fps=174 q=-0.0 size=N/A time=00:11:13.96 bitrate=N/A speed=7.26x    frame=16250 fps=174 q=-0.0 size=N/A time=00:11:17.76 bitrate=N/A speed=7.26x    frame=16342 fps=174 q=-0.0 size=N/A time=00:11:21.59 bitrate=N/A speed=7.26x    frame=16432 fps=174 q=-0.0 size=N/A time=00:11:25.35 bitrate=N/A speed=7.26x    frame=16523 fps=174 q=-0.0 size=N/A time=00:11:29.14 bitrate=N/A speed=7.26x    frame=16613 fps=174 q=-0.0 size=N/A time=00:11:32.90 bitrate=N/A speed=7.26x    frame=16704 fps=174 q=-0.0 size=N/A time=00:11:36.69 bitrate=N/A speed=7.26x    frame=16795 fps=174 q=-0.0 size=N/A time=00:11:40.49 bitrate=N/A speed=7.26x    frame=16883 fps=174 q=-0.0 size=N/A time=00:11:44.16 bitrate=N/A speed=7.26x    frame=16975 fps=174 q=-0.0 size=N/A time=00:11:47.99 bitrate=N/A speed=7.26x    frame=17063 fps=174 q=-0.0 size=N/A time=00:11:51.66 bitrate=N/A speed=7.26x    frame=17152 fps=174 q=-0.0 size=N/A time=00:11:55.38 bitrate=N/A speed=7.26x    frame=17241 fps=174 q=-0.0 size=N/A time=00:11:59.09 bitrate=N/A speed=7.26x    frame=17329 fps=174 q=-0.0 size=N/A time=00:12:02.76 bitrate=N/A speed=7.26x    frame=17417 fps=174 q=-0.0 size=N/A time=00:12:06.43 bitrate=N/A speed=7.26x    frame=17492 fps=174 q=-0.0 size=N/A time=00:12:09.56 bitrate=N/A speed=7.25x    frame=17589 fps=174 q=-0.0 size=N/A time=00:12:13.60 bitrate=N/A speed=7.26x    frame=17681 fps=174 q=-0.0 size=N/A time=00:12:17.44 bitrate=N/A speed=7.26x    frame=17772 fps=174 q=-0.0 size=N/A time=00:12:21.24 bitrate=N/A speed=7.26x    frame=17863 fps=174 q=-0.0 size=N/A time=00:12:25.03 bitrate=N/A speed=7.26x    frame=17944 fps=174 q=-0.0 size=N/A time=00:12:28.41 bitrate=N/A speed=7.26x    frame=18043 fps=174 q=-0.0 size=N/A time=00:12:32.54 bitrate=N/A speed=7.26x    frame=18134 fps=174 q=-0.0 size=N/A time=00:12:36.33 bitrate=N/A speed=7.26x    frame=18223 fps=174 q=-0.0 size=N/A time=00:12:40.05 bitrate=N/A speed=7.26x    frame=18316 fps=174 q=-0.0 size=N/A time=00:12:43.92 bitrate=N/A speed=7.26x    frame=18410 fps=174 q=-0.0 size=N/A time=00:12:47.85 bitrate=N/A speed=7.26x    frame=18486 fps=174 q=-0.0 size=N/A time=00:12:51.02 bitrate=N/A speed=7.26x    frame=18593 fps=174 q=-0.0 size=N/A time=00:12:55.48 bitrate=N/A speed=7.26x    frame=18683 fps=174 q=-0.0 size=N/A time=00:12:59.23 bitrate=N/A speed=7.26x    frame=18778 fps=174 q=-0.0 size=N/A time=00:13:03.19 bitrate=N/A speed=7.26x    frame=18867 fps=174 q=-0.0 size=N/A time=00:13:06.91 bitrate=N/A speed=7.27x    frame=18961 fps=174 q=-0.0 size=N/A time=00:13:10.83 bitrate=N/A speed=7.27x    frame=19053 fps=174 q=-0.0 size=N/A time=00:13:14.66 bitrate=N/A speed=7.27x    frame=19146 fps=174 q=-0.0 size=N/A time=00:13:18.54 bitrate=N/A speed=7.27x    frame=19233 fps=174 q=-0.0 size=N/A time=00:13:22.17 bitrate=N/A speed=7.27x    frame=19324 fps=174 q=-0.0 size=N/A time=00:13:25.97 bitrate=N/A speed=7.27x    frame=19413 fps=174 q=-0.0 size=N/A time=00:13:29.68 bitrate=N/A speed=7.27x    frame=19505 fps=174 q=-0.0 size=N/A time=00:13:33.52 bitrate=N/A speed=7.27x    frame=19586 fps=174 q=-0.0 size=N/A time=00:13:36.89 bitrate=N/A speed=7.27x    frame=19687 fps=174 q=-0.0 size=N/A time=00:13:41.11 bitrate=N/A speed=7.27x    frame=19777 fps=174 q=-0.0 size=N/A time=00:13:44.86 bitrate=N/A speed=7.27x    frame=19866 fps=174 q=-0.0 size=N/A time=00:13:48.57 bitrate=N/A speed=7.27x    frame=19950 fps=174 q=-0.0 size=N/A time=00:13:52.08 bitrate=N/A speed=7.27x    frame=20045 fps=174 q=-0.0 size=N/A time=00:13:56.04 bitrate=N/A speed=7.27x    frame=20139 fps=174 q=-0.0 size=N/A time=00:13:59.96 bitrate=N/A speed=7.27x    frame=20230 fps=174 q=-0.0 size=N/A time=00:14:03.75 bitrate=N/A speed=7.27x    frame=20318 fps=174 q=-0.0 size=N/A time=00:14:07.42 bitrate=N/A speed=7.27x    frame=20408 fps=174 q=-0.0 size=N/A time=00:14:11.18 bitrate=N/A speed=7.27x    frame=20499 fps=174 q=-0.0 size=N/A time=00:14:14.97 bitrate=N/A speed=7.27x    frame=20573 fps=174 q=-0.0 size=N/A time=00:14:18.06 bitrate=N/A speed=7.26x    frame=20679 fps=174 q=-0.0 size=N/A time=00:14:22.48 bitrate=N/A speed=7.27x    frame=20768 fps=174 q=-0.0 size=N/A time=00:14:26.19 bitrate=N/A speed=7.27x    frame=20851 fps=174 q=-0.0 size=N/A time=00:14:29.66 bitrate=N/A speed=7.27x    frame=20954 fps=174 q=-0.0 size=N/A time=00:14:33.95 bitrate=N/A speed=7.27x    frame=21042 fps=174 q=-0.0 size=N/A time=00:14:37.62 bitrate=N/A speed=7.27x    frame=21133 fps=174 q=-0.0 size=N/A time=00:14:41.42 bitrate=N/A speed=7.27x    frame=21216 fps=174 q=-0.0 size=N/A time=00:14:44.88 bitrate=N/A speed=7.27x    frame=21307 fps=174 q=-0.0 size=N/A time=00:14:48.67 bitrate=N/A speed=7.27x    frame=21397 fps=174 q=-0.0 size=N/A time=00:14:52.43 bitrate=N/A speed=7.27x    frame=21490 fps=174 q=-0.0 size=N/A time=00:14:56.31 bitrate=N/A speed=7.27x    frame=21580 fps=174 q=-0.0 size=N/A time=00:15:00.06 bitrate=N/A speed=7.27x    frame=21665 fps=174 q=-0.0 size=N/A time=00:15:03.61 bitrate=N/A speed=7.27x    frame=21762 fps=174 q=-0.0 size=N/A time=00:15:07.65 bitrate=N/A speed=7.27x    frame=21853 fps=174 q=-0.0 size=N/A time=00:15:11.45 bitrate=N/A speed=7.27x    frame=21942 fps=174 q=-0.0 size=N/A time=00:15:15.16 bitrate=N/A speed=7.27x    frame=22032 fps=174 q=-0.0 size=N/A time=00:15:18.91 bitrate=N/A speed=7.27x    frame=22126 fps=174 q=-0.0 size=N/A time=00:15:22.83 bitrate=N/A speed=7.27x    frame=22215 fps=174 q=-0.0 size=N/A time=00:15:26.55 bitrate=N/A speed=7.27x    frame=22309 fps=174 q=-0.0 size=N/A time=00:15:30.47 bitrate=N/A speed=7.27x    frame=22400 fps=174 q=-0.0 size=N/A time=00:15:34.26 bitrate=N/A speed=7.27x    frame=22486 fps=174 q=-0.0 size=N/A time=00:15:37.85 bitrate=N/A speed=7.27x    frame=22580 fps=174 q=-0.0 size=N/A time=00:15:41.77 bitrate=N/A speed=7.28x    frame=22674 fps=174 q=-0.0 size=N/A time=00:15:45.69 bitrate=N/A speed=7.28x    frame=22761 fps=174 q=-0.0 size=N/A time=00:15:49.32 bitrate=N/A speed=7.28x    frame=22853 fps=174 q=-0.0 size=N/A time=00:15:53.16 bitrate=N/A speed=7.28x    frame=22941 fps=174 q=-0.0 size=N/A time=00:15:56.83 bitrate=N/A speed=7.28x    frame=23021 fps=174 q=-0.0 size=N/A time=00:16:00.16 bitrate=N/A speed=7.27x    frame=23121 fps=174 q=-0.0 size=N/A time=00:16:04.33 bitrate=N/A speed=7.28x    frame=23215 fps=174 q=-0.0 size=N/A time=00:16:08.25 bitrate=N/A speed=7.28x    frame=23306 fps=174 q=-0.0 size=N/A time=00:16:12.05 bitrate=N/A speed=7.28x    frame=23397 fps=174 q=-0.0 size=N/A time=00:16:15.84 bitrate=N/A speed=7.28x    frame=23478 fps=174 q=-0.0 size=N/A time=00:16:19.22 bitrate=N/A speed=7.27x    frame=23570 fps=174 q=-0.0 size=N/A time=00:16:23.06 bitrate=N/A speed=7.27x    frame=23664 fps=174 q=-0.0 size=N/A time=00:16:26.98 bitrate=N/A speed=7.28x    frame=23756 fps=174 q=-0.0 size=N/A time=00:16:30.82 bitrate=N/A speed=7.28x    frame=23844 fps=174 q=-0.0 size=N/A time=00:16:34.49 bitrate=N/A speed=7.28x    frame=23934 fps=174 q=-0.0 size=N/A time=00:16:38.24 bitrate=N/A speed=7.28x    frame=24027 fps=174 q=-0.0 size=N/A time=00:16:42.12 bitrate=N/A speed=7.28x    frame=24116 fps=174 q=-0.0 size=N/A time=00:16:45.83 bitrate=N/A speed=7.28x    frame=24209 fps=174 q=-0.0 size=N/A time=00:16:49.71 bitrate=N/A speed=7.28x    frame=24298 fps=174 q=-0.0 size=N/A time=00:16:53.42 bitrate=N/A speed=7.28x    frame=24374 fps=174 q=-0.0 size=N/A time=00:16:56.59 bitrate=N/A speed=7.27x    frame=24478 fps=174 q=-0.0 size=N/A time=00:17:00.93 bitrate=N/A speed=7.28x    frame=24563 fps=174 q=-0.0 size=N/A time=00:17:04.48 bitrate=N/A speed=7.28x    frame=24660 fps=175 q=-0.0 size=N/A time=00:17:08.52 bitrate=N/A speed=7.28x    frame=24744 fps=174 q=-0.0 size=N/A time=00:17:12.03 bitrate=N/A speed=7.28x    frame=24844 fps=175 q=-0.0 size=N/A time=00:17:16.20 bitrate=N/A speed=7.28x    frame=24925 fps=174 q=-0.0 size=N/A time=00:17:19.58 bitrate=N/A speed=7.28x    frame=25026 fps=175 q=-0.0 size=N/A time=00:17:23.79 bitrate=N/A speed=7.28x    frame=25113 fps=175 q=-0.0 size=N/A time=00:17:27.42 bitrate=N/A speed=7.28x    frame=25199 fps=175 q=-0.0 size=N/A time=00:17:31.00 bitrate=N/A speed=7.28x    frame=25290 fps=175 q=-0.0 size=N/A time=00:17:34.80 bitrate=N/A speed=7.28x    frame=25377 fps=174 q=-0.0 size=N/A time=00:17:38.43 bitrate=N/A speed=7.28x    frame=25467 fps=174 q=-0.0 size=N/A time=00:17:42.18 bitrate=N/A speed=7.28x    frame=25559 fps=174 q=-0.0 size=N/A time=00:17:46.02 bitrate=N/A speed=7.28x    frame=25649 fps=175 q=-0.0 size=N/A time=00:17:49.77 bitrate=N/A speed=7.28x    frame=25740 fps=174 q=-0.0 size=N/A time=00:17:53.57 bitrate=N/A speed=7.28x    frame=25831 fps=175 q=-0.0 size=N/A time=00:17:57.36 bitrate=N/A speed=7.28x    frame=25920 fps=174 q=-0.0 size=N/A time=00:18:01.08 bitrate=N/A speed=7.28x    frame=26008 fps=174 q=-0.0 size=N/A time=00:18:04.75 bitrate=N/A speed=7.28x    frame=26100 fps=174 q=-0.0 size=N/A time=00:18:08.58 bitrate=N/A speed=7.28x    frame=26192 fps=175 q=-0.0 size=N/A time=00:18:12.42 bitrate=N/A speed=7.28x    frame=26283 fps=175 q=-0.0 size=N/A time=00:18:16.22 bitrate=N/A speed=7.28x    frame=26369 fps=175 q=-0.0 size=N/A time=00:18:19.80 bitrate=N/A speed=7.28x    frame=26460 fps=175 q=-0.0 size=N/A time=00:18:23.60 bitrate=N/A speed=7.28x    frame=26553 fps=175 q=-0.0 size=N/A time=00:18:27.48 bitrate=N/A speed=7.28x    frame=26645 fps=175 q=-0.0 size=N/A time=00:18:31.31 bitrate=N/A speed=7.28x    frame=26735 fps=175 q=-0.0 size=N/A time=00:18:35.07 bitrate=N/A speed=7.28x    frame=26823 fps=175 q=-0.0 size=N/A time=00:18:38.74 bitrate=N/A speed=7.28x    frame=26914 fps=175 q=-0.0 size=N/A time=00:18:42.53 bitrate=N/A speed=7.28x    frame=27001 fps=175 q=-0.0 size=N/A time=00:18:46.16 bitrate=N/A speed=7.28x    frame=27097 fps=175 q=-0.0 size=N/A time=00:18:50.17 bitrate=N/A speed=7.28x    frame=27190 fps=175 q=-0.0 size=N/A time=00:18:54.04 bitrate=N/A speed=7.28x    frame=27267 fps=174 q=-0.0 size=N/A time=00:18:57.26 bitrate=N/A speed=7.28x    frame=27373 fps=175 q=-0.0 size=N/A time=00:19:01.68 bitrate=N/A speed=7.28x    frame=27461 fps=175 q=-0.0 size=N/A time=00:19:05.35 bitrate=N/A speed=7.28x    frame=27553 fps=175 q=-0.0 size=N/A time=00:19:09.18 bitrate=N/A speed=7.28x    frame=27643 fps=175 q=-0.0 size=N/A time=00:19:12.94 bitrate=N/A speed=7.28x    frame=27730 fps=175 q=-0.0 size=N/A time=00:19:16.57 bitrate=N/A speed=7.28x    frame=27826 fps=175 q=-0.0 size=N/A time=00:19:20.57 bitrate=N/A speed=7.28x    frame=27914 fps=175 q=-0.0 size=N/A time=00:19:24.24 bitrate=N/A speed=7.28x    frame=28004 fps=175 q=-0.0 size=N/A time=00:19:28.00 bitrate=N/A speed=7.28x    frame=28104 fps=175 q=-0.0 size=N/A time=00:19:32.17 bitrate=N/A speed=7.28x    frame=28194 fps=175 q=-0.0 size=N/A time=00:19:35.92 bitrate=N/A speed=7.29x    frame=28284 fps=175 q=-0.0 size=N/A time=00:19:39.67 bitrate=N/A speed=7.28x    frame=28379 fps=175 q=-0.0 size=N/A time=00:19:43.64 bitrate=N/A speed=7.29x    frame=28472 fps=175 q=-0.0 size=N/A time=00:19:47.51 bitrate=N/A speed=7.29x    frame=28562 fps=175 q=-0.0 size=N/A time=00:19:51.27 bitrate=N/A speed=7.29x    frame=28650 fps=175 q=-0.0 size=N/A time=00:19:54.94 bitrate=N/A speed=7.29x    frame=28743 fps=175 q=-0.0 size=N/A time=00:19:58.82 bitrate=N/A speed=7.29x    frame=28832 fps=175 q=-0.0 size=N/A time=00:20:02.53 bitrate=N/A speed=7.29x    frame=28920 fps=175 q=-0.0 size=N/A time=00:20:06.20 bitrate=N/A speed=7.29x    frame=29008 fps=175 q=-0.0 size=N/A time=00:20:09.87 bitrate=N/A speed=7.29x    frame=29097 fps=175 q=-0.0 size=N/A time=00:20:13.58 bitrate=N/A speed=7.29x    frame=29193 fps=175 q=-0.0 size=N/A time=00:20:17.59 bitrate=N/A speed=7.29x    frame=29277 fps=175 q=-0.0 size=N/A time=00:20:21.09 bitrate=N/A speed=7.29x    frame=29376 fps=175 q=-0.0 size=N/A time=00:20:25.22 bitrate=N/A speed=7.29x    frame=29468 fps=175 q=-0.0 size=N/A time=00:20:29.06 bitrate=N/A speed=7.29x    frame=29554 fps=175 q=-0.0 size=N/A time=00:20:32.64 bitrate=N/A speed=7.29x    frame=29645 fps=175 q=-0.0 size=N/A time=00:20:36.44 bitrate=N/A speed=7.29x    frame=29728 fps=175 q=-0.0 size=N/A time=00:20:39.90 bitrate=N/A speed=7.29x    frame=29821 fps=175 q=-0.0 size=N/A time=00:20:43.78 bitrate=N/A speed=7.29x    frame=29910 fps=175 q=-0.0 size=N/A time=00:20:47.49 bitrate=N/A speed=7.29x    frame=30000 fps=175 q=-0.0 size=N/A time=00:20:51.25 bitrate=N/A speed=7.29x    frame=30090 fps=175 q=-0.0 size=N/A time=00:20:55.00 bitrate=N/A speed=7.29x    frame=30179 fps=175 q=-0.0 size=N/A time=00:20:58.71 bitrate=N/A speed=7.29x    frame=30267 fps=175 q=-0.0 size=N/A time=00:21:02.38 bitrate=N/A speed=7.29x    frame=30360 fps=175 q=-0.0 size=N/A time=00:21:06.26 bitrate=N/A speed=7.29x    frame=30445 fps=175 q=-0.0 size=N/A time=00:21:09.81 bitrate=N/A speed=7.28x    frame=30536 fps=175 q=-0.0 size=N/A time=00:21:13.60 bitrate=N/A speed=7.28x    frame=30621 fps=175 q=-0.0 size=N/A time=00:21:17.15 bitrate=N/A speed=7.28x    frame=30711 fps=175 q=-0.0 size=N/A time=00:21:20.90 bitrate=N/A speed=7.28x    frame=30801 fps=175 q=-0.0 size=N/A time=00:21:24.65 bitrate=N/A speed=7.28x    frame=30882 fps=175 q=-0.0 size=N/A time=00:21:28.03 bitrate=N/A speed=7.28x    frame=30971 fps=175 q=-0.0 size=N/A time=00:21:31.74 bitrate=N/A speed=7.28x    frame=31057 fps=175 q=-0.0 size=N/A time=00:21:35.33 bitrate=N/A speed=7.28x    frame=31157 fps=175 q=-0.0 size=N/A time=00:21:39.50 bitrate=N/A speed=7.28x    frame=31238 fps=175 q=-0.0 size=N/A time=00:21:42.88 bitrate=N/A speed=7.28x    frame=31328 fps=175 q=-0.0 size=N/A time=00:21:46.63 bitrate=N/A speed=7.28x    frame=31425 fps=175 q=-0.0 size=N/A time=00:21:50.68 bitrate=N/A speed=7.28x    frame=31514 fps=175 q=-0.0 size=N/A time=00:21:54.39 bitrate=N/A speed=7.28x    frame=31601 fps=175 q=-0.0 size=N/A time=00:21:58.02 bitrate=N/A speed=7.28x    frame=31694 fps=175 q=-0.0 size=N/A time=00:22:01.90 bitrate=N/A speed=7.28x    frame=31787 fps=175 q=-0.0 size=N/A time=00:22:05.78 bitrate=N/A speed=7.28x    frame=31868 fps=175 q=-0.0 size=N/A time=00:22:09.16 bitrate=N/A speed=7.28x    frame=31963 fps=175 q=-0.0 size=N/A time=00:22:13.12 bitrate=N/A speed=7.28x    frame=32059 fps=175 q=-0.0 size=N/A time=00:22:17.12 bitrate=N/A speed=7.28x    frame=32147 fps=175 q=-0.0 size=N/A time=00:22:20.79 bitrate=N/A speed=7.28x    frame=32229 fps=175 q=-0.0 size=N/A time=00:22:24.21 bitrate=N/A speed=7.28x    frame=32336 fps=175 q=-0.0 size=N/A time=00:22:28.68 bitrate=N/A speed=7.28x    frame=32427 fps=175 q=-0.0 size=N/A time=00:22:32.47 bitrate=N/A speed=7.28x    frame=32515 fps=175 q=-0.0 size=N/A time=00:22:36.14 bitrate=N/A speed=7.28x    frame=32614 fps=175 q=-0.0 size=N/A time=00:22:40.27 bitrate=N/A speed=7.29x    frame=32706 fps=175 q=-0.0 size=N/A time=00:22:44.11 bitrate=N/A speed=7.29x    frame=32799 fps=175 q=-0.0 size=N/A time=00:22:47.99 bitrate=N/A speed=7.29x    frame=32877 fps=175 q=-0.0 size=N/A time=00:22:51.24 bitrate=N/A speed=7.28x    frame=32979 fps=175 q=-0.0 size=N/A time=00:22:55.49 bitrate=N/A speed=7.29x    frame=33057 fps=175 q=-0.0 size=N/A time=00:22:58.75 bitrate=N/A speed=7.28x    frame=33159 fps=175 q=-0.0 size=N/A time=00:23:03.00 bitrate=N/A speed=7.29x    frame=33250 fps=175 q=-0.0 size=N/A time=00:23:06.80 bitrate=N/A speed=7.29x    frame=33335 fps=175 q=-0.0 size=N/A time=00:23:10.34 bitrate=N/A speed=7.29x    frame=33427 fps=175 q=-0.0 size=N/A time=00:23:14.18 bitrate=N/A speed=7.29x    frame=33524 fps=175 q=-0.0 size=N/A time=00:23:18.23 bitrate=N/A speed=7.29x    frame=33620 fps=175 q=-0.0 size=N/A time=00:23:22.23 bitrate=N/A speed=7.29x    frame=33708 fps=175 q=-0.0 size=N/A time=00:23:25.90 bitrate=N/A speed=7.29x    frame=33801 fps=175 q=-0.0 size=N/A time=00:23:29.78 bitrate=N/A speed=7.29x    frame=33888 fps=175 q=-0.0 size=N/A time=00:23:33.41 bitrate=N/A speed=7.29x    frame=33982 fps=175 q=-0.0 size=N/A time=00:23:37.33 bitrate=N/A speed=7.29x    [Parsed_ssim_10 @ 0000016c5f6952c0] SSIM Y:0.989971 (19.987356) U:0.991417 (20.663670) V:0.992477 (21.236057) All:0.990630 (20.282407)
[out#0/null @ 0000016c582aa880] video:14630KiB audio:266388KiB subtitle:0KiB other streams:0KiB global headers:0KiB muxing overhead: unknown
frame=34047 fps=175 q=-0.0 Lsize=N/A time=00:23:40.04 bitrate=N/A speed=7.29x    
